PathFileType	4	(X/Y/Z)	Walk7.trc
DataRate	CameraRate	NumFrames	NumMarkers	Units	OrigDataRate	OrigDataStartFrame	OrigNumFrames
200.000000	200.000000	6	60	mm	200.000000	709	829
Frame#	Times		RCAR		LTH3		RTH2		LBHD		LUA1		LWRU		RFA1		LFA1		LCAR		RTB3		LElbow		RToe		RTB2		RBHD		LElbowM		LTH2		C7		RPSI		RWRU		LWRR		RMT1		RMT5		RTB1		STRN		RLFC		RElbow		CLAV		T10		RBack		LPSI		LASI		LTH4		RLMAL		LLFC		LACR1		RUA1		LTB3		LTB4		RMMAL		LCAL		RTH3		LFHD		RElbowM		RCAL		LTB1		RACR1		RTH1		LTB2		LMMAL		RTH4		LMFC		RWRR		LMT5		RFHD		LLMAL		RASI		RTB4		LToe		LMT1		LTH1
			X1	Y1	Z1	X2	Y2	Z2	X3	Y3	Z3	X4	Y4	Z4	X5	Y5	Z5	X6	Y6	Z6	X7	Y7	Z7	X8	Y8	Z8	X9	Y9	Z9	X10	Y10	Z10	X11	Y11	Z11	X12	Y12	Z12	X13	Y13	Z13	X14	Y14	Z14	X15	Y15	Z15	X16	Y16	Z16	X17	Y17	Z17	X18	Y18	Z18	X19	Y19	Z19	X20	Y20	Z20	X21	Y21	Z21	X22	Y22	Z22	X23	Y23	Z23	X24	Y24	Z24	X25	Y25	Z25	X26	Y26	Z26	X27	Y27	Z27	X28	Y28	Z28	X29	Y29	Z29	X30	Y30	Z30	X31	Y31	Z31	X32	Y32	Z32	X33	Y33	Z33	X34	Y34	Z34	X35	Y35	Z35	X36	Y36	Z36	X37	Y37	Z37	X38	Y38	Z38	X39	Y39	Z39	X40	Y40	Z40	X41	Y41	Z41	X42	Y42	Z42	X43	Y43	Z43	X44	Y44	Z44	X45	Y45	Z45	X46	Y46	Z46	X47	Y47	Z47	X48	Y48	Z48	X49	Y49	Z49	X50	Y50	Z50	X51	Y51	Z51	X52	Y52	Z52	X53	Y53	Z53	X54	Y54	Z54	X55	Y55	Z55	X56	Y56	Z56	X57	Y57	Z57	X58	Y58	Z58	X59	Y59	Z59	X60	Y60	Z60

709	3.545	663.76	907.5	331.63	454.13	624.61	-126.38	397.45	692.47	201.22	342.07	1640.9	-12.568	296.65	1302.1	-202.84	267.93	866.34	-220.69	512.38	1009.7	365.14	248.18	1000.7	-228.39	332.36	818.67	-237.19	229.17	187.81	129.48	245.46	1152.4	-218.63	352.21	30.767	151.83	234.47	274.15	201.86	356.91	1646.5	128.74	224.46	1146.8	-143.7	487.11	736.5	-109.42	321.68	1514	62.196	208.42	1030.1	110.66	595.05	903.46	341.35	344.04	872.22	-186.06	297.84	39.159	128.08	245.61	25.193	206.73	289.46	363.61	145.77	492.07	1249	37.357	269.12	499.21	217.56	426.96	1140	362.98	449.18	1423.4	48.001	211.53	1293.2	67.659	259.87	1423.9	202.67	200.02	1023.1	33.043	404.71	1034.2	-87.248	425.11	712.31	-137.48	156.02	75.39	168.82	472.8	527.79	-117.87	374.26	1469.5	-114.64	422.71	1294.9	314.15	578.04	220.94	-62.34	566.2	316.31	-57.323	193.67	94.498	89.46	517.77	26.98	-56.185	307.07	615.46	223.92	523.31	1682.9	11.838	387.05	1112.6	295.91	99.009	41.735	117.97	555.2	405.52	-55	414.48	1459.2	210.35	354.1	799.98	241.47	534.22	315.95	-126.47	587.65	110.07	-26.808	333.48	705.83	235.68	490.88	529.71	11.543	631.26	938.67	281.9	667.14	54.321	-139.31	530.31	1684.7	88.087	557.55	83.462	-105.25	428.1	1036.5	196.86	260.27	275.33	136.44	750.37	95.064	-84.223	709.85	76.851	-63.53	397.12	801.41	-142.51
710	3.55	670.69	908.46	330.6	457.68	622.9	-126.59	400.96	691.76	201.13	347.27	1640	-13.338	301.3	1301.4	-203.43	270.5	865.73	-220.77	518.8	1009.7	364.48	251.41	1000.2	-228.55	334.65	817.71	-237.33	229.92	187.83	129.35	249.45	1151.9	-218.97	352.23	30.709	151.87	235.67	274.18	201.71	362.1	1645.8	127.96	228.5	1146.5	-144.01	491.19	734.57	-109.4	326.86	1513.2	61.417	213.5	1029.4	109.88	602.08	903.93	340.45	346.7	871.28	-186.3	297.86	39.145	128.08	245.58	25.182	206.68	291.17	363.34	145.62	497.15	1248.2	36.943	271.49	499.13	217.33	432.67	1139.6	362.59	454.4	1422.6	47.36	216.64	1292.5	66.824	264.97	1423.2	201.91	205.3	1022.3	32.285	410.18	1033.3	-87.534	429.14	710.75	-137.65	156.18	75.798	168.77	477.1	526.59	-117.56	379.6	1468.7	-115.42	428.1	1294.4	313.52	588.15	221.54	-62.085	574.42	316.71	-56.884	193.93	94.666	89.395	531.65	26.212	-57.015	310.05	615.26	223.6	528.5	1682.2	11.066	392.8	1112.1	295.55	99.052	42.328	117.93	561.62	405.71	-54.366	419.59	1458.5	209.62	358.07	799.49	241.12	542.92	315.91	-126.27	599.64	110.71	-26.753	336.89	705.44	235.24	494.02	528.05	12.415	637.92	939.44	280.94	681.42	56.626	-138.78	535.5	1684	87.316	570.83	83.71	-105.57	432.65	1035.7	196.86	261.49	275.2	136.29	763.45	98.727	-82.658	723.03	79.619	-62.451	401.7	800.03	-142.75
711	3.555	677.49	909.35	329.57	461.28	621.16	-126.83	404.53	691.04	201.06	352.47	1639.2	-14.145	306.01	1300.7	-204.06	273.15	865.11	-220.88	525.14	1009.6	363.81	254.72	999.65	-228.76	337.03	816.74	-237.48	230.72	187.87	129.21	253.52	1151.3	-219.35	352.24	30.642	151.92	236.93	274.22	201.54	367.28	1645	127.15	232.6	1146.2	-144.36	495.33	732.62	-109.45	332.03	1512.5	60.599	218.62	1028.6	109.05	609.01	904.33	339.54	349.46	870.34	-186.56	297.89	39.134	128.09	245.55	25.168	206.62	292.97	363.06	145.47	502.25	1247.4	36.506	273.95	499.05	217.08	438.33	1139.1	362.17	459.61	1421.8	46.689	221.75	1291.7	65.949	270.07	1422.5	201.11	210.61	1021.4	31.481	415.7	1032.4	-87.833	433.21	709.17	-137.85	156.36	76.237	168.71	481.51	525.43	-117.26	384.95	1467.9	-116.23	433.47	1293.9	312.86	597.82	222.1	-61.767	582.37	317.06	-56.416	194.22	94.86	89.328	544.76	25.56	-57.671	313.12	615.06	223.26	533.69	1681.4	10.26	398.49	1111.5	295.16	99.107	42.97	117.88	567.93	405.85	-53.735	424.68	1457.8	208.86	362.09	798.98	240.76	551.34	315.87	-126.02	611	111.35	-26.6	340.37	705.06	234.8	497.3	526.49	13.257	644.47	940.15	279.98	694.85	58.816	-138.2	540.69	1683.2	86.511	583.39	84.004	-105.75	437.2	1035	196.88	262.77	275.07	136.13	775.78	102.13	-81.127	735.47	82.207	-61.361	406.32	798.62	-143.02
712	3.56	684.17	910.17	328.56	464.96	619.44	-127.09	408.18	690.34	201	357.67	1638.3	-14.988	310.76	1300	-204.73	275.91	864.46	-221.01	531.37	1009.6	363.12	258.13	999.08	-229	339.52	815.75	-237.65	231.55	187.91	129.07	257.68	1150.8	-219.77	352.25	30.566	151.96	238.24	274.28	201.36	372.46	1644.2	126.31	236.76	1145.8	-144.77	499.53	730.68	-109.57	337.2	1511.7	59.743	223.78	1027.8	108.16	615.82	904.67	338.62	352.31	869.37	-186.83	297.93	39.123	128.1	245.52	25.154	206.55	294.85	362.77	145.31	507.36	1246.7	36.044	276.51	498.96	216.83	443.93	1138.7	361.72	464.83	1421	45.988	226.86	1291	65.036	275.16	1421.9	200.27	215.96	1020.5	30.631	421.25	1031.5	-88.145	437.34	707.59	-138.09	156.57	76.707	168.64	486.03	524.3	-116.98	390.3	1467	-117.07	438.81	1293.4	312.16	607.02	222.59	-61.385	590.04	317.34	-55.921	194.52	95.082	89.259	557.07	25	-58.132	316.26	614.86	222.92	538.88	1680.6	9.4177	404.13	1110.9	294.72	99.173	43.663	117.83	574.15	405.91	-53.117	429.77	1457.2	208.06	366.15	798.47	240.37	559.45	315.79	-125.73	621.71	111.95	-26.346	343.92	704.67	234.37	500.75	525.05	14.055	650.92	940.8	279.04	707.39	60.82	-137.55	545.88	1682.5	85.672	595.18	84.297	-105.79	441.77	1034.2	196.91	264.11	274.93	135.96	787.35	105.19	-79.647	747.13	84.561	-60.272	410.98	797.2	-143.33
713	3.565	690.73	910.92	327.55	468.77	617.74	-127.36	411.89	689.63	200.94	362.87	1637.5	-15.869	315.56	1299.2	-205.44	278.77	863.79	-221.18	537.51	1009.5	362.42	261.64	998.48	-229.28	342.12	814.75	-237.83	232.44	187.97	128.92	261.91	1150.2	-220.24	352.26	30.484	152	239.62	274.35	201.18	377.64	1643.4	125.42	240.98	1145.4	-145.22	503.83	728.79	-109.77	342.36	1510.9	58.846	228.97	1027	107.23	622.51	904.96	337.7	355.25	868.39	-187.11	297.98	39.112	128.13	245.49	25.139	206.48	296.82	362.47	145.14	512.5	1245.9	35.556	279.18	498.87	216.56	449.46	1138.3	361.24	470.05	1420.2	45.256	231.98	1290.2	64.085	280.24	1421.2	199.39	221.34	1019.6	29.737	426.85	1030.5	-88.473	441.57	706.03	-138.38	156.8	77.211	168.57	490.68	523.21	-116.71	395.67	1466.2	-117.95	444.12	1292.9	311.43	615.76	222.98	-60.942	597.44	317.52	-55.407	194.85	95.333	89.189	568.54	24.507	-58.383	319.5	614.65	222.57	544.07	1679.8	8.5408	409.71	1110.3	294.24	99.254	44.408	117.79	580.28	405.89	-52.521	434.85	1456.5	207.24	370.26	797.95	239.96	567.24	315.65	-125.39	631.76	112.47	-25.992	347.55	704.28	233.95	504.4	523.75	14.796	657.26	941.38	278.11	719.02	62.572	-136.84	551.06	1681.7	84.798	606.18	84.545	-105.69	446.37	1033.4	196.93	265.53	274.8	135.8	798.14	107.87	-78.235	757.99	86.629	-59.194	415.69	795.79	-143.68
714	3.57	697.17	911.59	326.57	472.73	616.1	-127.64	415.69	688.93	200.9	368.07	1636.7	-16.788	320.42	1298.4	-206.19	281.73	863.1	-221.38	543.55	1009.4	361.7	265.24	997.87	-229.6	344.82	813.73	-238.03	233.37	188.05	128.77	266.24	1149.6	-220.74	352.26	30.4	152.03	241.06	274.43	200.99	382.82	1642.7	124.5	245.26	1145	-145.73	508.25	726.98	-110.04	347.51	1510.1	57.907	234.2	1026.2	106.25	629.07	905.2	336.78	358.3	867.4	-187.42	298.04	39.098	128.17	245.47	25.127	206.41	298.88	362.17	144.96	517.66	1245.1	35.039	281.95	498.78	216.28	454.94	1137.8	360.72	475.27	1419.5	44.492	237.11	1289.4	63.097	285.31	1420.5	198.48	226.76	1018.7	28.8	432.48	1029.6	-88.817	445.91	704.5	-138.71	157.05	77.751	168.51	495.48	522.15	-116.46	401.03	1465.3	-118.86	449.4	1292.4	310.66	624.03	223.25	-60.44	604.57	317.6	-54.877	195.21	95.614	89.12	579.14	24.061	-58.414	322.82	614.43	222.21	549.26	1678.9	7.6289	415.24	1109.8	293.73	99.348	45.209	117.74	586.32	405.77	-51.953	439.91	1455.8	206.38	374.42	797.43	239.53	574.7	315.43	-125	641.15	112.87	-25.541	351.26	703.9	233.54	508.27	522.59	15.472	663.49	941.9	277.19	729.73	64.013	-136.07	556.25	1680.9	83.89	616.38	84.71	-105.43	451.02	1032.6	196.93	267.01	274.67	135.63	808.16	110.09	-76.905	768.06	88.359	-58.136	420.47	794.4	-144.08
